<svg xmlns="http://www.w3.org/2000/svg" xmlns:xlink="http://www.w3.org/1999/xlink" width="1080" zoomAndPan="magnify" viewBox="0 0 810 809.999993" height="1080" preserveAspectRatio="xMidYMid meet" version="1.0"><defs><g/></defs><g fill="#ffde59" fill-opacity="1"><g transform="translate(44.4845, 680.624986)"><g><path d="M 31.90625 -545.921875 L 31.90625 -601.03125 L 266.078125 -601.03125 L 266.078125 -545.921875 Z M 497.34375 73.953125 L 471.25 -23.921875 L 535.046875 -23.921875 L 535.046875 -50.75 L 423.40625 -50.75 L 423.40625 74.671875 L 294.34375 74.671875 L 294.34375 -50.75 L 268.96875 -50.75 L 268.96875 48.578125 L 175.453125 48.578125 L 175.453125 73.21875 L 26.09375 73.21875 L 26.09375 -242.875 L 268.96875 -242.875 L 268.96875 -105.84375 L 294.34375 -105.84375 L 294.34375 -316.828125 L 403.09375 -316.828125 L 403.09375 -343.65625 L 276.953125 -343.65625 L 276.953125 -398.75 L 326.96875 -398.75 L 326.96875 -440.078125 L 303.046875 -440.078125 L 303.046875 -495.171875 L 326.96875 -495.171875 L 326.96875 -532.15625 L 287.09375 -532.15625 L 287.09375 -587.25 L 326.96875 -587.25 L 326.96875 -624.953125 L 469.796875 -624.953125 L 469.796875 -587.25 L 507.5 -587.25 L 507.5 -624.953125 L 664.828125 -624.953125 L 664.828125 -587.25 L 701.796875 -587.25 L 701.796875 -532.15625 L 664.828125 -532.15625 L 664.828125 -495.171875 L 687.296875 -495.171875 L 687.296875 -440.078125 L 664.828125 -440.078125 L 664.828125 -398.75 L 711.953125 -398.75 L 711.953125 -343.65625 L 564.046875 -343.65625 L 564.046875 -316.828125 L 691.65625 -316.828125 L 691.65625 -105.84375 L 711.953125 -105.84375 L 711.953125 -50.75 L 691.65625 -50.75 L 691.65625 73.953125 Z M 13.046875 -456.75 L 13.046875 -511.84375 L 278.40625 -511.84375 L 278.40625 -456.75 Z M 31.90625 -367.578125 L 31.90625 -422.671875 L 266.078125 -422.671875 L 266.078125 -367.578125 Z M 31.90625 -277.671875 L 31.90625 -332.78125 L 266.078125 -332.78125 L 266.078125 -277.671875 Z M 507.5 -532.15625 L 469.796875 -532.15625 L 469.796875 -495.171875 L 507.5 -495.171875 Z M 507.5 -440.078125 L 469.796875 -440.078125 L 469.796875 -398.75 L 507.5 -398.75 Z M 543.75 -262.453125 L 515.46875 -262.453125 L 515.46875 -213.15625 L 543.75 -213.15625 Z M 442.96875 -262.453125 L 414.703125 -262.453125 L 414.703125 -213.15625 L 442.96875 -213.15625 Z M 543.75 -160.21875 L 515.46875 -160.21875 L 515.46875 -105.84375 L 543.75 -105.84375 Z M 442.96875 -160.21875 L 414.703125 -160.21875 L 414.703125 -105.84375 L 442.96875 -105.84375 Z M 189.953125 -188.5 L 164.578125 -188.5 L 164.578125 -6.53125 L 189.953125 -6.53125 Z M 189.953125 -188.5 "/></g></g></g></svg>