<svg xmlns="http://www.w3.org/2000/svg" xmlns:xlink="http://www.w3.org/1999/xlink" width="1080" zoomAndPan="magnify" viewBox="0 0 810 809.999993" height="1080" preserveAspectRatio="xMidYMid meet" version="1.0"><defs><g/></defs><g fill="#ffde59" fill-opacity="1"><g transform="translate(44.4845, 680.624986)"><g><path d="M 583.625 -456.75 L 567.671875 -612.625 L 674.25 -612.625 L 693.09375 -456.75 Z M 434.28125 66.703125 L 429.203125 21.75 L 300.875 21.75 L 300.875 74.671875 L 73.21875 74.671875 L 39.875 -74.671875 L 123.25 -74.671875 L 123.25 -181.96875 L 36.96875 -166.03125 L 21.03125 -224.03125 L 123.25 -242.15625 L 123.25 -372.65625 L 29 -372.65625 L 29 -427.75 L 123.25 -427.75 L 123.25 -529.96875 L 62.34375 -522 L 44.21875 -579.28125 L 332.78125 -614.078125 L 351.625 -558.25 L 300.875 -551.71875 L 300.875 -427.75 L 379.171875 -427.75 L 357.421875 -624.953125 L 541.578125 -624.953125 L 561.15625 -427.75 L 697.453125 -427.75 L 697.453125 -372.65625 L 566.953125 -372.65625 L 570.578125 -334.953125 L 699.625 -334.953125 L 587.96875 -166.03125 L 595.953125 -83.375 L 689.46875 -83.375 L 711.953125 66.703125 Z M 407.453125 -174 L 385.703125 -372.65625 L 300.875 -372.65625 L 300.875 -273.328125 L 371.203125 -285.65625 L 371.203125 -227.65625 L 300.875 -214.59375 L 300.875 -27.546875 Z M 407.453125 -174 "/></g></g></g></svg>