<svg xmlns="http://www.w3.org/2000/svg" xmlns:xlink="http://www.w3.org/1999/xlink" width="1080" zoomAndPan="magnify" viewBox="0 200 810 400" height="400" preserveAspectRatio="xMidYMid meet" version="1.0"><defs><g/></defs><g fill="#ffde59" fill-opacity="1"><g transform="translate(63.057708, 490.522107)"><g><path d="M 100.296875 -78.875 L 100.296875 -156.609375 L 129.703125 -156.609375 L 129.703125 -165.5 L 100.078125 -165.5 L 100.078125 -182.8125 L 129.703125 -182.8125 L 129.703125 -196.5 L 184.1875 -196.5 L 184.1875 -182.8125 L 223.171875 -182.8125 L 223.171875 -165.5 L 184.1875 -165.5 L 184.1875 -156.609375 L 220.203125 -156.609375 L 220.203125 -78.875 Z M 187.375 18.6875 L 180.765625 -46.5 L 217.6875 -46.5 L 224.53125 18.6875 Z M 122.859375 19.609375 L 122.859375 -48.09375 L 136.765625 -48.09375 L 135.859375 -54.484375 L 99.609375 -54.484375 L 99.609375 -71.8125 L 222.484375 -71.8125 L 222.484375 -54.484375 L 172.5625 -54.484375 L 176.203125 -25.53125 L 167.3125 -25.53125 L 167.3125 -17.78125 L 177.125 -17.78125 L 181 19.609375 Z M 51.515625 23.484375 L 51.515625 11.390625 L 7.296875 17.546875 L 5.25 0.234375 L 16.1875 -1.140625 L 16.1875 -17.328125 L 8.65625 -17.328125 L 8.65625 -34.65625 L 16.1875 -34.65625 L 16.1875 -47.640625 L 6.84375 -47.640625 L 6.84375 -64.96875 L 51.515625 -64.96875 L 51.515625 -75.21875 L 5.703125 -70.203125 L 3.640625 -87.53125 L 9.578125 -88.21875 L 9.578125 -173.921875 L 4.78125 -173.921875 L 4.78125 -191.25 L 96.875 -191.25 L 96.875 -173.921875 L 93 -173.921875 L 93 23.484375 Z M 95.0625 18.6875 L 100.53125 -46.5 L 120.125 -46.5 L 116.03125 18.6875 Z M 182.8125 -139.5 L 173.921875 -139.5 L 173.921875 -95.96875 L 182.8125 -95.96875 Z M 158.890625 -139.5 L 150.21875 -139.5 L 150.21875 -95.96875 L 158.890625 -95.96875 Z M 135.171875 -139.5 L 126.28125 -139.5 L 126.28125 -95.96875 L 135.171875 -95.96875 Z M 64.0625 -173.921875 L 52.890625 -173.921875 L 52.890625 -158.65625 L 64.0625 -158.65625 Z M 64.0625 -141.328125 L 52.890625 -141.328125 L 52.890625 -125.828125 L 64.0625 -125.828125 Z M 64.0625 -108.5 L 52.890625 -108.5 L 52.890625 -92.78125 L 64.0625 -93.921875 Z M 51.515625 -47.640625 L 42.625 -47.640625 L 42.625 -34.65625 L 51.515625 -34.65625 Z M 51.515625 -17.328125 L 42.625 -17.328125 L 42.625 -4.5625 L 51.515625 -5.703125 Z M 51.515625 -17.328125 "/></g></g></g><g fill="#ffde59" fill-opacity="1"><g transform="translate(291.013247, 490.522107)"><g><path d="M 183.5 -143.609375 L 178.484375 -192.625 L 212 -192.625 L 217.921875 -143.609375 Z M 136.546875 20.96875 L 134.953125 6.84375 L 94.59375 6.84375 L 94.59375 23.484375 L 23.015625 23.484375 L 12.53125 -23.484375 L 38.75 -23.484375 L 38.75 -57.21875 L 11.625 -52.203125 L 6.609375 -70.4375 L 38.75 -76.140625 L 38.75 -117.171875 L 9.125 -117.171875 L 9.125 -134.5 L 38.75 -134.5 L 38.75 -166.640625 L 19.609375 -164.125 L 13.90625 -182.140625 L 104.625 -193.078125 L 110.5625 -175.53125 L 94.59375 -173.46875 L 94.59375 -134.5 L 119.21875 -134.5 L 112.375 -196.5 L 170.28125 -196.5 L 176.4375 -134.5 L 219.296875 -134.5 L 219.296875 -117.171875 L 178.265625 -117.171875 L 179.40625 -105.3125 L 219.96875 -105.3125 L 184.875 -52.203125 L 187.375 -26.21875 L 216.78125 -26.21875 L 223.84375 20.96875 Z M 128.109375 -54.703125 L 121.265625 -117.171875 L 94.59375 -117.171875 L 94.59375 -85.9375 L 116.71875 -89.8125 L 116.71875 -71.578125 L 94.59375 -67.46875 L 94.59375 -8.65625 Z M 128.109375 -54.703125 "/></g></g></g><g fill="#ffde59" fill-opacity="1"><g transform="translate(518.968786, 490.522107)"><g><path d="M 10.03125 -171.65625 L 10.03125 -188.96875 L 83.65625 -188.96875 L 83.65625 -171.65625 Z M 156.375 23.25 L 148.171875 -7.515625 L 168.234375 -7.515625 L 168.234375 -15.953125 L 133.125 -15.953125 L 133.125 23.484375 L 92.546875 23.484375 L 92.546875 -15.953125 L 84.578125 -15.953125 L 84.578125 15.265625 L 55.171875 15.265625 L 55.171875 23.015625 L 8.203125 23.015625 L 8.203125 -76.359375 L 84.578125 -76.359375 L 84.578125 -33.28125 L 92.546875 -33.28125 L 92.546875 -99.609375 L 126.734375 -99.609375 L 126.734375 -108.046875 L 87.078125 -108.046875 L 87.078125 -125.375 L 102.8125 -125.375 L 102.8125 -138.375 L 95.28125 -138.375 L 95.28125 -155.6875 L 102.8125 -155.6875 L 102.8125 -167.3125 L 90.265625 -167.3125 L 90.265625 -184.640625 L 102.8125 -184.640625 L 102.8125 -196.5 L 147.71875 -196.5 L 147.71875 -184.640625 L 159.5625 -184.640625 L 159.5625 -196.5 L 209.03125 -196.5 L 209.03125 -184.640625 L 220.65625 -184.640625 L 220.65625 -167.3125 L 209.03125 -167.3125 L 209.03125 -155.6875 L 216.09375 -155.6875 L 216.09375 -138.375 L 209.03125 -138.375 L 209.03125 -125.375 L 223.84375 -125.375 L 223.84375 -108.046875 L 177.34375 -108.046875 L 177.34375 -99.609375 L 217.46875 -99.609375 L 217.46875 -33.28125 L 223.84375 -33.28125 L 223.84375 -15.953125 L 217.46875 -15.953125 L 217.46875 23.25 Z M 4.109375 -143.609375 L 4.109375 -160.9375 L 87.53125 -160.9375 L 87.53125 -143.609375 Z M 10.03125 -115.578125 L 10.03125 -132.890625 L 83.65625 -132.890625 L 83.65625 -115.578125 Z M 10.03125 -87.3125 L 10.03125 -104.625 L 83.65625 -104.625 L 83.65625 -87.3125 Z M 159.5625 -167.3125 L 147.71875 -167.3125 L 147.71875 -155.6875 L 159.5625 -155.6875 Z M 159.5625 -138.375 L 147.71875 -138.375 L 147.71875 -125.375 L 159.5625 -125.375 Z M 170.96875 -82.515625 L 162.078125 -82.515625 L 162.078125 -67.015625 L 170.96875 -67.015625 Z M 139.28125 -82.515625 L 130.390625 -82.515625 L 130.390625 -67.015625 L 139.28125 -67.015625 Z M 170.96875 -50.375 L 162.078125 -50.375 L 162.078125 -33.28125 L 170.96875 -33.28125 Z M 139.28125 -50.375 L 130.390625 -50.375 L 130.390625 -33.28125 L 139.28125 -33.28125 Z M 59.71875 -59.265625 L 51.75 -59.265625 L 51.75 -2.046875 L 59.71875 -2.046875 Z M 59.71875 -59.265625 "/></g></g></g></svg>