<svg xmlns="http://www.w3.org/2000/svg" xmlns:xlink="http://www.w3.org/1999/xlink" width="1080" zoomAndPan="magnify" viewBox="0 0 810 809.999993" height="1080" preserveAspectRatio="xMidYMid meet" version="1.0"><defs><g/></defs><g fill="#ffde59" fill-opacity="1"><g transform="translate(42.379615, 680.764343)"><g><path d="M 319.09375 -250.921875 L 319.09375 -498.21875 L 412.65625 -498.21875 L 412.65625 -526.515625 L 318.375 -526.515625 L 318.375 -581.625 L 412.65625 -581.625 L 412.65625 -625.140625 L 585.984375 -625.140625 L 585.984375 -581.625 L 709.984375 -581.625 L 709.984375 -526.515625 L 585.984375 -526.515625 L 585.984375 -498.21875 L 700.5625 -498.21875 L 700.5625 -250.921875 Z M 596.125 59.46875 L 575.09375 -147.9375 L 692.578125 -147.9375 L 714.34375 59.46875 Z M 390.890625 62.375 L 390.890625 -153.015625 L 435.125 -153.015625 L 432.234375 -173.328125 L 316.921875 -173.328125 L 316.921875 -228.4375 L 707.8125 -228.4375 L 707.8125 -173.328125 L 548.984375 -173.328125 L 560.59375 -81.21875 L 532.3125 -81.21875 L 532.3125 -56.5625 L 563.5 -56.5625 L 575.828125 62.375 Z M 163.90625 74.703125 L 163.90625 36.265625 L 23.203125 55.84375 L 16.6875 0.71875 L 51.484375 -3.625 L 51.484375 -55.109375 L 27.5625 -55.109375 L 27.5625 -110.234375 L 51.484375 -110.234375 L 51.484375 -151.578125 L 21.75 -151.578125 L 21.75 -206.6875 L 163.90625 -206.6875 L 163.90625 -239.328125 L 18.125 -223.375 L 11.609375 -278.484375 L 30.453125 -280.65625 L 30.453125 -553.34375 L 15.234375 -553.34375 L 15.234375 -608.453125 L 308.21875 -608.453125 L 308.21875 -553.34375 L 295.890625 -553.34375 L 295.890625 74.703125 Z M 302.421875 59.46875 L 319.828125 -147.9375 L 382.1875 -147.9375 L 369.140625 59.46875 Z M 581.625 -443.828125 L 553.34375 -443.828125 L 553.34375 -305.3125 L 581.625 -305.3125 Z M 505.484375 -443.828125 L 477.921875 -443.828125 L 477.921875 -305.3125 L 505.484375 -305.3125 Z M 430.0625 -443.828125 L 401.765625 -443.828125 L 401.765625 -305.3125 L 430.0625 -305.3125 Z M 203.78125 -553.34375 L 168.25 -553.34375 L 168.25 -504.75 L 203.78125 -504.75 Z M 203.78125 -449.640625 L 168.25 -449.640625 L 168.25 -400.328125 L 203.78125 -400.328125 Z M 203.78125 -345.203125 L 168.25 -345.203125 L 168.25 -295.15625 L 203.78125 -298.796875 Z M 163.90625 -151.578125 L 135.609375 -151.578125 L 135.609375 -110.234375 L 163.90625 -110.234375 Z M 163.90625 -55.109375 L 135.609375 -55.109375 L 135.609375 -14.5 L 163.90625 -18.125 Z M 163.90625 -55.109375 "/></g></g></g></svg>